<?xml version="1.0" encoding="utf-8" ?><svg xmlns="http://www.w3.org/2000/svg" xmlns:xlink="http://www.w3.org/1999/xlink" width="1024" height="1024" viewBox="0 0 1024 1024"><path fill="#1E376B" transform="scale(2 2)" d="M146.26 91.5883C157.156 91.4906 153.744 109.898 153.739 117.312L153.727 290.318C159.58 295.778 165.606 301.354 170.92 307.344C183.479 307.085 196.189 308.109 208.749 308.553L317.293 313.555C323.059 313.841 328.901 314.353 334.674 314.13C338.625 309.708 355.093 292.002 358.73 290.318L358.724 257.052C358.717 253.035 358.241 246.003 358.802 242.276C359.861 235.235 370.77 235.018 371.912 242.145C372.612 246.516 372.141 251.575 372.135 256.01L372.127 282.786C376.325 282.195 380.064 282.262 384.269 282.786L384.257 248.044C384.242 238.034 382.658 227.379 388.854 218.735C396.571 207.97 412.039 205.851 422.598 213.677C433.783 221.966 432.867 233.597 432.869 245.878L432.873 307.863C432.878 336.599 431.685 339.188 409.792 360.776L386.622 383.587C382.604 387.546 378.192 391.46 374.756 395.947L374.756 403.947C388.151 404.137 384.232 413.995 384.251 424.458L384.285 441.085C384.306 459.821 381.539 457.002 365.684 455.543L304.082 450.321C282.431 448.406 282.046 452.589 282.097 429.983C282.114 422.516 281.997 415.04 282.115 407.576C283.553 405.884 284.96 404.833 287.004 403.947C288.705 403.498 290.745 403.828 292.495 403.947C292.471 358.722 288.239 357.757 320.716 327.763C313.542 326.892 306.107 326.852 298.879 326.512L213.598 322.445C203.734 322.006 193.798 321.333 183.928 321.272C188.618 325.553 193.08 330.115 197.641 334.534C215.112 351.459 219.157 354.277 219.145 380.996L219.126 403.947C228.421 403.482 229.956 405.31 229.948 414.38L229.972 436.145C229.978 452.357 225.434 448.809 210.72 450.009L150.773 455C145.635 455.486 140.333 456.33 135.189 456.418C125.037 456.592 127.998 440.361 127.994 433.988C127.99 426.454 127.848 418.883 128.031 411.352C128.185 404.977 130.809 403.436 137.021 403.947C136.989 401.279 136.992 398.615 137.021 395.947C128.603 388.118 120.881 379.627 112.813 371.449L98.4345 356.814C87.3113 345.469 79.5579 337.866 79.2459 320.805C78.8744 300.487 79.2422 280.09 79.2396 259.763L79.2343 240.957C79.2362 237.248 78.9537 233.262 79.5699 229.606C83.9801 203.443 120.823 202.153 127.156 226.224C128.752 232.291 128.016 242.075 128.014 248.525L128.005 282.786C132.34 281.705 135.661 281.36 140.14 281.833L140.154 116.062C140.155 108.241 136.778 93.2746 146.26 91.5883ZM323.086 344.584C307.399 360.349 305.814 358.097 305.859 382.639L305.875 403.947L361.045 403.947C360.922 386.548 361.386 389.717 372.62 378.646L398.424 353.015C414.902 336.641 419.267 335.405 419.264 312.456L419.257 235.106C419.21 227.755 414.78 221.355 406.706 222.532C395.754 224.79 397.71 235.819 397.707 244.262L397.715 283.914C397.724 293.078 397.659 291.686 400.09 299.833C405.315 317.347 387.178 328.876 376.3 339.709C371.87 344.119 365.441 354.22 358.175 349.626C349.511 344.15 360.179 336.274 363.961 332.575C369.449 327.211 387.486 312.319 386.758 305.302C386.161 299.56 380.605 294.833 374.762 295.834C370.162 296.622 367.116 300.726 364.023 303.839L352.798 315.135C342.951 324.995 332.814 334.62 323.086 344.584Z"/><path fill="#F9EEEA" transform="scale(2 2)" d="M101.783 222.532C115.113 221.41 114.379 232.967 114.374 242.148L114.382 282.462C114.396 286.594 114.66 290.873 114.326 294.985C114.028 298.644 112.421 302.018 112.311 305.782C111.898 319.988 128.141 332.288 137.671 341.851C140.406 344.595 145.616 351.82 149.987 351.728C154.514 351.633 158.013 346.885 156.27 342.576C155.085 339.646 152.161 337.256 149.997 335.012L137.524 322.107C131.753 316.21 120.511 307.027 129.028 298.288C137.875 289.211 146.691 302.987 152.45 308.657L186.523 342.625C205.204 361.548 205.678 357.504 205.66 383.723L205.646 403.947L150.213 403.947C149.871 386.967 151.602 391.597 139.297 378.993L113.026 352.419C89.5589 328.703 92.5554 330.624 92.5558 297.697L92.5505 244.184C92.507 235.567 91.055 225.32 101.783 222.532Z"/><path fill="#30ABF1" transform="scale(2 2)" d="M141.319 417.704L191.73 417.705C199.993 417.705 208.322 417.438 216.575 417.704C216.546 423.797 216.794 429.909 216.575 435.997L210.811 436.444L171.814 439.348C161.656 440.198 151.51 441.493 141.319 441.834C141.234 433.794 141.318 425.745 141.319 417.704Z"/><path fill="#30ABF1" transform="scale(2 2)" d="M295.613 417.704L370.77 417.704L370.77 441.834C363.29 441.651 355.803 440.868 348.349 440.232L316.155 437.462C309.337 436.865 302.457 436.157 295.613 435.997C295.457 429.915 295.608 423.791 295.613 417.704Z"/><path fill="#1E376B" transform="scale(2 2)" d="M157.591 52.2475L157.892 52.2319C167.714 51.7806 177.795 52.7301 187.62 53.0943L299.343 57.7278C312.135 58.2743 312.735 64.0616 322.183 73.3166L353.395 104.33C374.728 125.788 372.13 115.511 372.136 146.671L372.102 204.945C372.096 208.781 373.423 215.234 370.435 218.295C367.793 221.002 363.052 220.56 360.54 217.911C357.705 214.919 358.704 206.395 358.73 202.438L358.73 132.836L333.234 131.059C318.389 130.073 302.807 131.035 298.305 112.282C297.12 107.345 297.737 101.433 297.737 96.3355L297.752 71.4228C280.648 71.0984 263.497 70.0477 246.413 69.1636L189.589 66.6278L174.773 66.1689C170.02 65.9761 162.797 65.0147 158.318 66.0328C150.584 67.7908 156.878 76.9143 146.26 79.2968C133.144 76.3497 141.145 55.3209 157.591 52.2475Z"/><path fill="#30ABF1" transform="scale(2 2)" d="M311.209 81.6C313.818 83.1291 319.95 89.8136 322.516 92.3681L348.876 118.741L329.833 117.556C313.709 116.704 311.195 117.665 311.194 98.9797L311.209 81.6Z"/><path fill="#1E376B" transform="scale(2 2)" d="M327.137 148.318C335.277 149.331 333.728 162.442 333.258 169.193C349.392 169.676 346.139 172.264 346.138 187.979L346.112 239.665C346.08 252.297 349.581 261.289 333.258 260.249C333.192 267.596 336.087 277.53 327.137 280.272C316.291 280.555 319.752 266.937 319.749 260.249C306.818 260.765 307.248 258.024 307.247 246.301L307.24 229.566C307.233 212.204 306.905 194.771 307.25 177.417C307.427 168.526 312.175 168.894 319.749 169.193C319.797 160.017 316.586 150.712 327.137 148.318Z"/><path fill="#55CEAD" transform="scale(2 2)" d="M320.716 182.411L332.525 182.411L332.525 247.263L320.716 247.263L320.716 182.411Z"/><path fill="#1E376B" transform="scale(2 2)" d="M183.928 115.556C195.434 114.447 191.981 130.075 191.966 137.504L195.449 137.471C209.03 137.417 204.876 151.425 204.865 161.8L204.896 198.696C204.832 208.417 201.962 209.331 192.777 209.239C192.577 214.977 195.67 229.402 187.471 230.305C175.828 231.516 179.242 217.138 179.269 209.239C165.265 209.437 165.537 205.76 165.526 192.982L165.526 157.908C165.532 145.046 162.184 136.314 178.405 137.504C178.297 129.717 175.506 118.562 183.928 115.556Z"/><path fill="#55CEAD" transform="scale(2 2)" d="M179.269 150.756L191.397 150.756L191.397 195.266L179.269 195.266L179.269 150.756Z"/><path fill="#1E376B" transform="scale(2 2)" d="M279.862 164.573C290.733 164.382 287.441 178.989 287.476 185.892C295.359 186.422 298.144 187.098 298.469 195.615C298.935 207.848 298.546 220.234 298.544 232.483L298.563 246.173C298.591 257.223 299.133 260.394 287.004 260.249C286.945 268.066 290.102 278.626 279.862 280.272C270.707 278.032 273.483 267.35 273.515 260.249C260.247 259.022 260.61 259.451 260.6 245.195L260.601 231.662C260.609 219.543 260.348 207.371 260.617 195.258C260.836 185.406 265.495 185.625 274.089 185.892C274.096 178.295 270.977 166.775 279.862 164.573Z"/><path fill="#F44F57" transform="scale(2 2)" d="M274.089 198.909L285.467 198.909L285.467 247.263L274.089 247.263L274.089 198.909Z"/><path fill="#1E376B" transform="scale(2 2)" d="M231.147 141.264C242.212 140.836 239.088 154.65 238.998 162.25C254.368 162.121 251.358 170.738 251.347 182.218L251.388 216.397C251.539 228.158 251.249 230.358 238.998 230.305C239.03 237.074 241.69 248.795 232.59 250.164C223.448 249.621 224.786 236.666 225.75 230.305C208.589 230.464 212.884 223.403 212.909 210.057L212.902 172.101C212.893 162.681 217.391 162.14 225.75 162.25C225.797 155.195 222.988 144.612 231.147 141.264Z"/><path fill="#55CEAD" transform="scale(2 2)" d="M226.166 175.23L237.811 175.23L237.811 217.073L226.166 217.073L226.166 175.23Z"/></svg>